/* XPM */
static char *xppenx32[] = {
/* columns rows colors chars-per-pixel */
"32 32 235 2 ",
"   c #562E07",
".  c #6B3B0B",
"X  c #6B440B",
"o  c #784A09",
"O  c #6A4417",
"+  c #7D5117",
"@  c #7D5833",
"#  c #BE230D",
"$  c #D71809",
"%  c #D72C0D",
"&  c #CF3016",
"*  c #99430D",
"=  c #87570B",
"-  c #935210",
";  c #AA480C",
":  c #B54A07",
">  c #B74D09",
",  c #BA520B",
"<  c #BC530B",
"1  c #A94D16",
"2  c #A85817",
"3  c #BA5915",
"4  c #B45C1B",
"5  c #B85A18",
"6  c #9A6B11",
"7  c #BB611D",
"8  c #B07215",
"9  c #8D592E",
"0  c #BA5B27",
"q  c #BE4F32",
"w  c #916930",
"e  c #BF6321",
"r  c #B96B35",
"t  c #B8783A",
"y  c #C25507",
"u  c #C35B0B",
"i  c #D14C1A",
"p  c #C65817",
"a  c #CB650B",
"s  c #D7780D",
"d  c #C36318",
"f  c #CF7310",
"g  c #D77A19",
"h  c #D25430",
"j  c #E24A20",
"k  c #C36929",
"l  c #D27128",
"z  c #C26637",
"x  c #C67939",
"c  c #D47D3A",
"v  c #AF3F49",
"b  c #B95058",
"n  c #926E44",
"m  c #A5715C",
"M  c #AC4C66",
"N  c #CC7E49",
"B  c #D67C4A",
"V  c #C97253",
"C  c #E36F56",
"Z  c #D1756E",
"A  c #B9882B",
"S  c #81BA37",
"D  c #A9AC3E",
"F  c #CF8205",
"G  c #C7850E",
"H  c #CE830A",
"J  c #D08609",
"K  c #D38D0B",
"L  c #D5930E",
"P  c #D9970D",
"I  c #CA8712",
"U  c #CD8B14",
"Y  c #D48A18",
"T  c #CB9313",
"R  c #D59210",
"E  c #D99C14",
"W  c #D69718",
"Q  c #D99B1A",
"!  c #E08713",
"~  c #DDA214",
"^  c #DEA51B",
"/  c #D7AD1C",
"(  c #DFA91B",
")  c #E0AB1A",
"_  c #D98728",
"`  c #CA9727",
"'  c #DA9B26",
"]  c #D1893A",
"[  c #CC9436",
"{  c #D99734",
"}  c #E69924",
"|  c #E4983A",
" . c #DCA727",
".. c #D3A52A",
"X. c #DEA737",
"o. c #DCB134",
"O. c #E1AD22",
"+. c #EAA42D",
"@. c #EDAB2D",
"#. c #F0AD2A",
"$. c #E3B124",
"%. c #E5B72E",
"&. c #E1AA35",
"*. c #E3B435",
"=. c #E7B938",
"-. c #F5BA35",
";. c #B2934D",
":. c #A58457",
">. c #ABB852",
",. c #B2936F",
"<. c #BEA27C",
"1. c #D78A4F",
"2. c #CE8751",
"3. c #DA935B",
"4. c #E79851",
"5. c #C8A04A",
"6. c #DAAA44",
"7. c #DEB54E",
"8. c #DBA854",
"9. c #E5B545",
"0. c #EBBE45",
"q. c #E3B44B",
"w. c #E6BD4F",
"e. c #E1AF56",
"r. c #E5B858",
"t. c #DC9767",
"y. c #CE8470",
"u. c #E3936E",
"i. c #E99B7B",
"p. c #DAA466",
"a. c #D5B373",
"s. c #E3A867",
"d. c #E9BA65",
"f. c #EBAE7B",
"g. c #E8BC7A",
"h. c #EBC343",
"j. c #EAC14C",
"k. c #EAC255",
"l. c #EAC65A",
"z. c #EBC45C",
"x. c #ECC563",
"c. c #ECC965",
"v. c #EBC369",
"b. c #ECCA6C",
"n. c #F0C365",
"m. c #F1C76D",
"M. c #ECCB74",
"N. c #ECC877",
"B. c #F2CF76",
"V. c #BE6690",
"C. c #BB789D",
"Z. c #BB76A1",
"A. c #CC7691",
"S. c #C276A6",
"D. c #C57CAA",
"F. c #C070BB",
"G. c #B78793",
"H. c #BD8AA5",
"J. c #C38D88",
"K. c #D8998D",
"L. c #CA899B",
"P. c #CD9899",
"I. c #D8969A",
"U. c #C6AC88",
"Y. c #D5B08B",
"T. c #D8A799",
"R. c #DDB695",
"E. c #E3AE88",
"W. c #E7B288",
"Q. c #F5A791",
"!. c #E6BA98",
"~. c #F3B69A",
"^. c #C98BA6",
"/. c #D48AA6",
"(. c #D498A9",
"). c #C682BA",
"_. c #CF9DB0",
"`. c #DAAFA7",
"'. c #DCA4A9",
"]. c #D8B5AF",
"[. c #E4ABA9",
"{. c #E8B8A7",
"}. c #F4BDA5",
"|. c #F0BEBD",
" X c #D8C294",
".X c #EDC686",
"XX c #F3CF80",
"oX c #EFD384",
"OX c #F4D385",
"+X c #EBC394",
"@X c #EDC999",
"#X c #EED194",
"$X c #F7D992",
"%X c #F5D897",
"&X c #FBE09D",
"*X c #DAC5AB",
"=X c #E9C6A8",
"-X c #ECC4A9",
";X c #F2C6A8",
":X c #F1CAA9",
">X c #F2D4A4",
",X c #F8DDA2",
"<X c #F5D6A9",
"1X c #EDCFBC",
"2X c #F5CDB3",
"3X c #F4C9B8",
"4X c #ECD8B8",
"5X c #F6D6B8",
"6X c #F2DEBA",
"7X c #FDE5A6",
"8X c #FCE3A8",
"9X c #F8E1BD",
"0X c #C990C3",
"qX c #D897C7",
"wX c #DFB1CD",
"eX c #E5B2C9",
"rX c #E6C6C8",
"tX c #F4CBC3",
"yX c #EDD7CB",
"uX c #F9D6C3",
"iX c #F9DDC5",
"pX c #EFCED2",
"aX c #F4E2C5",
"sX c #F5E3C9",
"dX c #F9E4CD",
"fX c #F6E5D6",
"gX c #F9EAD4",
"hX c #FAEDDA",
"jX c #FBF1DA",
"kX c #F5E9E3",
"lX c #FBF3E4",
"zX c #FEF7EB",
"xX c #FFF8ED",
"cX c #FDF8F2",
"vX c #FFFFFF",
/* pixels */
"6XvXvXvXvXvXlXaXvXvXsX{ } +.-.-.-.-.| f.} s ! s g s s y 1XvXvXvX",
"6XvXvXvXvXvXlXaXvXvX1X_ _ +.-.-.@.+.4.;X| s ! s f a a y E.vXvXvX",
"6XvXvXvXvXvXlXaXvXvX=Xf g @.#.} } g ~.iXW.l ) ^ a y u , 2.vXvXvX",
"<XjXlXcXvXvXkXaXvXvX-Xp g } ! Y l s.5X;X2Xt.o./ < y u : N zXvXvX",
"T.I./.Z.^.=X].).0XqX(.M z h a l f.iXaXdX2X2Xg p > < d : m kXvXvX",
"+XC.+XC.L.R.T.C.C.S.R.b v i ] W.dXhXjXsXaX5X] u > , d : k fXvXvX",
"[.^.T.P.@XT.L.R.P.P.K.V M K.R.yXhXjX{.R.W.2X1.y 1 < 7 : e yXvXvX",
";X:X=X=X,X,X+X%X!.!.!.W.c ~.1X].hXhXkXG.yX;X3.p 1 , 0 > 4 :XcXcX",
"7X7X7X7X7X7X7X7X7X8X7X7X] W.J.P.fXfXJ.m kX1Xt.p 1 3 5 3 ; p.%X>X",
"-X'.{.,X:X:X=X<X7X7X<X[.f.3.rXyXpXdXyXpXtX3Xt.3 1 3 4 3 ; p.#X#X",
"<X^.<X}.{.'.(.|.{.:X`._.!.V wXwXeXpXrXeX|.3Xt.5 * k 4 3 ; p.#X#X",
">X(.;XD.^.^.Z./.(.>X=XH.D.V.A.qXF.0X0XF.tX3XN 4 ; r 1 3 0 a.%X#X",
"{.[.'./.'.{.^.[.'.<X[.'.(.(.Z M L.qXqXD.}.Q.B 2 5 4 4 4 x B.8X7X",
"7X7X7X7X8X8X7X7X7X7X8X8X8X8XN.[ w =XK.S.}.}.N * e 5 8 x m OX7X7X",
"7X7X7X7X7X7X7X7X8X7X8X7X$XB.c.` @ yXlXkXdX>Xt * 2 2 Q ^ 6.%X7X7X",
"7X7X7X7X7X7X7X7X7X8X7XOXb.z.w.8 n hXlXgX6X%X@ X - G h.O.W =.$X7X",
"7X7X7X7X7X7X7X7X8X8Xx.9.z.z.=.= m sXgXgX9XY.  6 ~ / ~ ) h.$.' B.",
"7X7X7X7X7X7X7X7X7XXX .r..XB.X.= ,.jXsXsX9Xn o T $.=.E o.j.$.P X.",
"7X7X7X7X7X7X7X7X$Xq.+X@XD l.=.= U.zXxXzXY.O 6 E ( (  .l.E Q %.) ",
"7X7X7X7X7X7X7X8Xv.+X-Xa.;.A J o U.zXzXlX:.X T $.%.L  .o.~ ^ ) E ",
"&X&X7X7X7X7X7XOX9.5Xi.4.V G I o U.zXzXyXX w ..~ O.L =.K E K L ) ",
"n.m.B.B.$X%X$X&..XdXQ.;X[ E ..o <.zXlX<.X A k.%.L J O.L ~ E ) $.",
"m.m.n.n.n.n.z.9XiX5X;X@XH *.7.+ ,.zXfXn X ` c.*.~ P H E K ) E $.",
"r.r.d.n.n.q.B.hX2X~.4.r.' =.r.= :.zX*X. = w.N./ P K K ) ) =.) %.",
"B.M.M.d.v.X.v.5X.X' H e.8.Q ^ = n hX,.  5.oXB.O.~ F H  .F L K ) ",
"M.B.M.B.M.6.X.X.W F ' x..X&.E - 9 =X@ O N.oXj.W P L H J F Q ^ O.",
"M.M.M.M.N.r.K I U ` o.w.j.{ q y.Z h # r e.7.' W { 9.9.X.I K F H ",
"M.M.M.M.N.N.e.7.7.q.e.h i V A R.iX4XC C +X<X@X>X<Xr.^ &.w.$.K O.",
"M.M.M.M.M.M.v.c.n.z.w.[ k > r _ o.S >.u.uXuX5XuXhX5X6.K ' ) ~ ~ ",
"c.b.b.M.b.b.c.x.z.k.0.0.| % $ % i r  X2X2X;XC f.a.g.d.' s J ~ F ",
"c.c.c.c.x.x.x.l.k.j.0.h.=.j $ j & K.}.}.!.8.] x ` ` I G U U K E ",
"c.c.z.x.z.z.k.k.k.0.0.=.=...% % k h 2.8.X.o.o.*.&.%.o........./ "
};
